<?xml version="1.0" encoding="iso-8859-1"?>
<!-- Uploaded to: SVG Repo, www.svgrepo.com, Generator: SVG Repo Mixer Tools -->
<svg height="800px" width="800px" version="1.1" id="Layer_1" xmlns="http://www.w3.org/2000/svg" xmlns:xlink="http://www.w3.org/1999/xlink" 
	 viewBox="0 0 324.143 324.143" xml:space="preserve">
<g>
	<path style="fill:#005CB9;" d="M162.071,7.5C77.162,7.5,8.33,76.331,8.33,161.241c0,38.283,13.997,73.295,37.147,100.207
		c-6.953,19.986-19.807,37.209-36.479,49.581c10.592,3.619,21.938,5.613,33.757,5.613c20.214,0,39.082-5.751,55.067-15.698
		c19.551,9.007,41.312,14.039,64.249,14.039c84.909,0,153.741-68.833,153.741-153.742C315.813,76.331,246.98,7.5,162.071,7.5z"/>
	<path style="fill:#FFFFFF;" d="M88.972,225.877h32.718V112.532H88.972V225.877z M199.237,112.532c-3.504,0-6.791,0.092-9.926,0.245
		c3.359-7.043,4.597-19.895,4.597-27.76c0-7.04-6.105-12.748-13.635-12.748c-6.591,0-12.089,4.372-13.359,10.183
		c-1.847,6.729-7.044,30.111-23.721,38.439c-3.657,0.924-7.316,1.797-11.122,2.551v89.522c14.735,4.818,22.731,12.912,53.898,12.912
		c44.368,0,53.068-34.304,53.068-56.673C239.038,146.836,243.604,112.532,199.237,112.532z"/>
	<path style="fill:#071C2C;" d="M199.49,105.032c1.844-9.214,1.918-18.588,1.918-20.015c0-11.165-9.481-20.248-21.135-20.248
		c-9.874,0-18.518,6.662-20.639,15.871c-0.111,0.407-0.233,0.868-0.368,1.377c-1.838,6.952-6.667,25.213-18.756,31.815
		c-3.873,0.969-6.954,1.67-9.896,2.252c-0.496,0.099-0.972,0.244-1.424,0.433v-3.985c0-4.143-3.358-7.5-7.5-7.5H88.972
		c-4.142,0-7.5,3.357-7.5,7.5v113.345c0,4.143,3.358,7.5,7.5,7.5h32.718c4.142,0,7.5-3.357,7.5-7.5v-5.987
		c0.18,0.074,0.363,0.143,0.55,0.204c3.418,1.117,6.51,2.46,9.783,3.881c10.151,4.407,21.657,9.402,46.446,9.402
		c27.772,0,42.18-12.636,49.377-23.235c9.25-13.623,11.191-29.781,11.191-40.938c0-1.815,0.031-3.711,0.063-5.661
		c0.245-15.066,0.548-33.817-11.85-46.418C226.897,109.144,215.036,105.076,199.49,105.032z M114.19,218.377H96.472v-98.345h17.718
		V218.377z M231.602,163.3c-0.033,2.033-0.064,4.011-0.064,5.904c0,18.364-5.92,49.173-45.568,49.173
		c-21.674,0-30.805-3.965-40.473-8.162c-1.916-0.831-3.868-1.679-5.926-2.497v-78.225c1.678-0.391,3.474-0.828,5.459-1.33
		c0.523-0.132,1.031-0.32,1.514-0.562c18.646-9.312,24.878-32.877,27.224-41.749c0.141-0.531,0.266-1.006,0.378-1.415
		c0.035-0.127,0.066-0.255,0.095-0.384c0.542-2.482,3.079-4.284,6.032-4.284c3.383,0,6.135,2.354,6.135,5.248
		c0,7.962-1.355,19.266-3.867,24.531c-1.136,2.383-0.937,5.187,0.526,7.385c1.462,2.197,3.961,3.455,6.61,3.335
		c3.248-0.159,6.375-0.236,9.559-0.236c11.5,0,19.851,2.562,24.821,7.613C232.048,135.767,231.812,150.394,231.602,163.3z
		 M162.071,0C73.163,0,0.83,72.332,0.83,161.241c0,37.076,12.788,73.004,36.1,101.677c-6.65,16.756-17.789,31.245-32.401,42.089
		c-2.238,1.66-3.37,4.424-2.941,7.177c0.429,2.754,2.349,5.042,4.986,5.942c11.683,3.992,23.856,6.017,36.182,6.017
		c19.572,0,38.698-5.093,55.569-14.763c20.158,8.696,41.584,13.104,63.747,13.104c88.909,0,161.241-72.333,161.241-161.242
		S250.98,0,162.071,0z M162.071,307.483c-21.32,0-41.881-4.492-61.111-13.351c-2.291-1.058-4.959-0.89-7.101,0.443
		c-15.313,9.529-32.985,14.566-51.105,14.566c-6.053,0-12.065-0.564-17.981-1.684c12.52-12.12,22.014-26.95,27.787-43.547
		c0.879-2.525,0.346-5.328-1.397-7.354C28.378,230.07,15.83,196.22,15.83,161.241C15.83,80.604,81.434,15,162.071,15
		s146.241,65.604,146.241,146.241C308.313,241.88,242.709,307.483,162.071,307.483z"/>
</g>
</svg>